<?xml version="1.0" standalone="no"?>
<!DOCTYPE svg PUBLIC "-//W3C//DTD SVG 1.1//EN" "http://www.w3.org/Graphics/SVG/1.1/DTD/svg11.dtd" >
<svg xmlns="http://www.w3.org/2000/svg" xmlns:xlink="http://www.w3.org/1999/xlink" version="1.1">
<metadata></metadata>
<defs>
<font id="notepadregular" horiz-adv-x="1024" >
<font-face units-per-em="2048" ascent="1638" descent="-410" />
<missing-glyph horiz-adv-x="500" />
<glyph unicode="&#xd;" />
<glyph unicode=" " />
<glyph unicode="!" horiz-adv-x="579" d="M6 252q33 72 66 151q68 164 67 226l164 522q59 199 121 399q29 82 63 82q33 0 44.5 -22.5t11.5 -69.5q0 -18 -2 -60.5t-2 -62.5q0 -45 -93 -291q-59 -158 -102 -344q-53 -160 -82 -241q-88 -246 -112 -279q-33 -16 -50 -24q-55 -27 -63 -27t-19.5 14.5t-11.5 26.5z M147 -53q0 27 13 80q2 12 16 17t35 5q27 -2 31 -2q25 0 34 -13.5t9 -33.5q-2 -19 -2 -25q0 -41 -25 -61t-57 -20q-27 0 -33 4q-20 12 -21 49z" />
<glyph unicode="&#x22;" horiz-adv-x="886" d="M18 928v35q37 98 58 149q63 158 94 198t104 206q47 104 115 104q14 0 43 -38t29 -54q0 -27 -58 -119q-70 -104 -139 -209q-45 -98 -94 -178q-66 -109 -117 -141q-35 35 -35 47zM377 911q25 76 45 125q59 143 141 256q74 135 119 209q86 139 158 139q30 0 61 -92 l-461 -688q-25 10 -37 19q-27 16 -26 32z" />
<glyph unicode="#" />
<glyph unicode="$" horiz-adv-x="1386" d="M68 238q0 18 10 20q20 8 50 12t58 4q45 0 84 -6t64 -10q16 0 92 162q16 37 78 166q-92 37 -244 157q-193 154 -192 252q0 70 165 142q201 86 492 86q88 0 166 178q53 123 90 170h72v-72v-31q0 -25 -27 -63.5t-55 -79.5q0 -14 -5 -33.5t-16 -48.5h41q121 0 144 141 q31 186 112 248h62v-92q0 -51 -41 -151.5t-41 -135.5q0 -6 87 -49t87 -135q0 -55 -150.5 -109.5t-167.5 -179.5l-153 -420q23 -37 33 -57q33 -66 28 -96q-12 -86 -73 -117q-100 -33 -177 -63q-14 -6 -14 -43q0 -23 -1 -41.5t-11 -32.5q-35 -47 -68 -146q-51 -152 -137 -151 q-25 0 -43 24.5t-18 57.5q10 35 22 63q35 78 111 203v31h-176q-68 0 -119 -111q-117 -254 -209 -268v82q8 6 12 10q8 10 8 41q0 37 72 160t72 137q0 20 -79 70.5t-85 83.5q-4 10 -4 14q-6 20 -6 27zM229 956q0 -4 2 -12q39 -6 74 -45q78 -86 80 -88q25 -8 53 -20 q55 -25 107 -72q45 45 104 217q27 80 56 111v22h-41q-117 -2 -181 -8q-193 -23 -252 -86q-4 -4 -2 -19zM459 156q53 0 86 -5.5t57 -5.5q45 0 60 27q37 86 94 199q-41 20 -62 41q-29 33 -57 61q-35 -39 -76 -117zM684 637q0 -18 68 -62q23 -14 69 -40q23 78 113 311 q29 78 88 223v31q-6 -2 -12 -2h-11q-20 2 -28 2q-59 0 -107 -94q-29 -61 -57 -123q-12 -16 -70 -133q-18 -37 -53 -113zM1165 985q59 37 64 39q18 15 28 66q-16 -6 -26 -7q-16 4 -25 7q-2 -4 -11 -26t-30 -38v-41z" />
<glyph unicode="%" horiz-adv-x="1445" d="M-373 -573q2 -16 4 -33q-2 -15 -4 -29v62zM20 850q0 156 125 317q135 174 285 174q10 0 20.5 -20.5t20.5 -20.5q18 0 18 -28q0 -41 -28 -74q-20 -23 -53 -22q-31 2 -50 2q-72 0 -139 -148q-55 -123 -65 -231h82q129 0 233 134t104 286q-31 53 -43 75q0 12 2 27 q70 0 107 -65.5t37 -149.5q0 -186 -145.5 -323.5t-335.5 -137.5q-92 0 -133.5 54.5t-41.5 150.5zM57 -276q0 20 17 69q53 164 231 443q141 223 221 333q57 80 127 150q100 129 150 196q156 207 168 234q29 55 149 235q154 227 199 228q12 0 26.5 -18.5t14.5 -32.5 q0 -39 -72 -146q-205 -305 -225 -338q-115 -180 -197 -286q-119 -154 -131 -183.5t-162 -236.5q-180 -250 -258 -375q-135 -219 -135 -313l-30 -62q-29 6 -61 40t-32 63zM592 154q0 197 213 381q201 174 371 174q45 0 68.5 -30t23.5 -83q0 -12 -25.5 -66.5t-42.5 -76.5 q-8 31 -8 67q0 16 2 33q0 4 2 12q2 16 -27 17q-102 0 -241 -107q-174 -133 -203 -321q-2 -20 6 -29q8 -8 25 -8q12 0 20 2q2 0 10 4q334 168 478 348q74 92 149 186q10 10 14 5q7 -11 7 -87q0 -55 -74 -162.5t-133 -146.5q-111 -98 -219 -194q-127 -82 -252 -82 q-84 0 -115 22q-49 35 -49 142z" />
<glyph unicode="&#x26;" horiz-adv-x="1814" d="M-4 53q0 141 201 377q139 164 374 369q193 168 203 168q31 33 84 237q45 170 193 244q98 53 198 108q143 51 367 76h22q70 0 111 -14q72 -25 72 -88q0 -18 -64 -49q-260 -127 -356 -187q-82 -51 -121 -82q-23 -18 -96 -92q-49 -33 -94 -65q-90 -66 -91 -88 q0 -66 105 -195q66 -78 131 -154q104 -152 317 -233q27 -23 54 -43q-55 -43 -136 -82q-121 -57 -358 -133q-317 -101 -747 -207q-16 -12 -56.5 -21.5t-97.5 -9.5q-115 0 -165 44t-50 120zM150 33q16 6 24 6q23 -6 47 -6q98 0 389 88q137 43 277 88q35 0 198.5 46.5 t210.5 66.5q-121 143 -241 286q-37 49 -168 246q-270 -180 -461 -391q-137 -152 -219 -303q-53 -96 -57 -127zM1004 1192q23 -4 186 125q73 65 147 131q-74 -16 -114 -33q-129 -51 -183 -141q-6 -23 -15 -44.5t-21 -37.5z" />
<glyph unicode="'" horiz-adv-x="417" d="M2 997q0 43 39 123q29 59 59 121q6 14 74 111q76 109 80 114q20 49 41 99q31 57 84 57q31 0 51.5 -6.5t20.5 -26.5l-78 -168q-90 -184 -170 -311q-106 -168 -160 -168q-14 0 -25 10q-16 16 -16 45z" />
<glyph unicode="(" horiz-adv-x="1136" d="M16 113q0 152 149.5 495.5t283.5 509.5q92 135 136 196.5t140 174.5q31 37 121 92q98 61 145 61q39 0 60.5 -30.5t21.5 -61.5q0 -43 -76 -184q-12 -25 -36 -63v155q-10 -2 -27 -2q-57 0 -98 -45q-78 -84 -295 -426q-84 -131 -119 -190q-104 -176 -166 -330 q-86 -211 -86 -352q0 -211 125 -322q113 -98 297 -98q117 0 246 28q117 33 235 64h62v-51q-98 -25 -203 -57.5t-176 -65.5q-49 -14 -76 -21q-82 -20 -109 -20q-248 0 -401.5 153.5t-153.5 389.5zM868 1186q27 16 33 28q4 8 8 37h31q-16 -23 -31 -45q-6 -6 -41 -20z" />
<glyph unicode=")" horiz-adv-x="1048" d="M16 -371q20 33 129 86q37 16 109 47q23 16 74 64q160 145 284 285q141 156 197 286q8 23 18 54q0 8 21 36q10 14 10 25q0 16 36 171t36 218v23q-8 78 -32 139t-71 137q-12 20 -57 117q-66 139 -127 139q-4 0 -19.5 -15.5t-31.5 -15.5l-82 84q10 35 18 52q25 51 54 51 q205 0 452 -596q25 -59 25 -109q0 -12 -4 -57q-6 -76 -12.5 -133.5t-30.5 -132.5q-6 -25 -8 -41q-23 -96 -54 -123q-25 -96 -110 -227q-92 -139 -269 -297q-35 -39 -67 -78q-78 -76 -137 -76q-61 -49 -101 -72q-121 -72 -219 -71h-31v30z" />
<glyph unicode="*" horiz-adv-x="1343" d="M6 944q0 74 247 145.5t247 110.5q0 20 -41 92t-41 113q8 14 14 20q18 20 37 21q10 -4 18 -8q47 -27 115 -95q2 2 41 148q27 94 123 111q0 -8 -1 -31t-1 -60q0 -43 2 -75.5t10 -51.5q29 90 45 138q33 88 78 110q14 8 27 8q23 0 29 -32.5t6 -120.5q0 -41 -15.5 -86 t-46.5 -78v-31h174q82 29 123 39q127 37 135 23q14 -23 15 -43q0 -74 -336 -135q-181 -33 -224 -68q20 -27 37 -45q102 -119 250 -232q-2 -4 -15.5 -37.5t-35.5 -33.5q-43 0 -129 61q-100 72 -199 144v-41q0 -106 -14 -170q-23 -96 -78 -97q-14 0 -40.5 20.5t-51.5 20.5 q-27 0 -57 -24q-74 -57 -76 -58q-25 0 -43.5 25t-18.5 57q0 45 26 58.5t26 23.5q51 66 94 120t49 116q-143 -25 -330 -109q-78 -35 -112 -35q-23 0 -42.5 19.5t-19.5 52.5z" />
<glyph unicode="+" horiz-adv-x="1196" d="M-4 432q0 43 33.5 57.5t85.5 14.5h24q70 23 109 39q117 49 170 96q29 70 41 109q41 123 41 188q0 23 16 55q25 47 66 47q31 0 46 -27.5t15 -64.5l-72 -299q74 25 115 37q127 37 182 37q51 0 113.5 -5t81.5 -5q18 8 29 10q37 12 59 12q25 0 40 -11t15 -42q0 -35 -18 -49.5 t-84 -14.5l-318 -71q-178 -39 -196 -49q-49 -27 -49 -74q-53 -147 -82 -219q-92 -221 -135 -221q-20 20 -31 30q-31 35 -31 62q0 16 52.5 162.5t52.5 154.5q0 25 -41 25q-37 0 -110 -21.5t-148 -44.5q-18 0 -45 24.5t-27 57.5z" />
<glyph unicode="," horiz-adv-x="696" d="M6 -379q184 147 289 234q195 162 194 260q0 14 15 43q33 63 33 98q0 18 -7 43q-14 43 -14 82q0 84 62 84q39 0 72.5 -50t33.5 -136q4 -45 -20 -123q-45 -139 -175 -318q-45 -61 -186 -127q-156 -74 -297 -90z" />
<glyph unicode="-" horiz-adv-x="886" d="M6 575q0 55 109 84q76 20 149 21q41 16 111.5 28.5t144.5 12.5h256q57 0 100.5 -16.5t43.5 -57.5q0 -14 -20.5 -27.5t-61.5 -13.5q-35 -20 -74 -26q-72 -14 -162 -15h-174l-381 -82q-10 0 -25.5 39t-15.5 53z" />
<glyph unicode="." horiz-adv-x="196" d="M8 115q0 37 36 60.5t56 23.5q35 0 64 -33t29 -82q0 -41 -26 -56.5t-77 -15.5q-23 0 -47 23q-35 33 -35 80z" />
<glyph unicode="/" />
<glyph unicode="0" horiz-adv-x="1564" d="M-2 338q0 199 166 450q74 113 287 361q70 53 139 108q172 125 323 203q219 111 369 111q102 0 158.5 -62.5t56.5 -185.5q0 -20 10.5 -59t10.5 -54q0 -61 -2 -94q-9 -133 -9 -151q-31 -121 -71 -215q-68 -152 -187 -328q-39 -59 -301 -215q-281 -166 -385 -166 q-45 -25 -88 -33q-84 -18 -178 -18q-86 0 -174 69q-125 98 -125 279zM152 287q0 -59 78.5 -92t181.5 -33q61 0 110 12q121 33 277 125q109 63 231 158q47 39 96 78q143 125 211 305q47 124 47 237q0 135 -51 206t-145 91q-8 2 -31 2q-96 0 -235 -76q-168 -92 -334 -253 q-197 -193 -373 -472q-45 -70 -54 -111.5t-9 -176.5z" />
<glyph unicode="1" horiz-adv-x="534" d="M16 53q0 94 41 236.5t82 206.5q6 35 42 149.5t112 310.5q70 180 102 396q16 106 72 106q20 0 46 -27.5t26 -64.5q0 -100 -79 -336.5t-155 -458.5q-84 -250 -84 -333q-14 -86 -26 -127q-43 -129 -117 -129q-35 0 -48.5 13t-13.5 58z" />
<glyph unicode="2" horiz-adv-x="1093" d="M16 104q0 -53 22.5 -82.5t80.5 -29.5q88 0 346 96t448 199q220 119 191 166q-8 12 -113 -27q-68 -25 -102 -25q-14 0 -273.5 -97t-310.5 -97q8 18 191 199q217 215 323 342q172 205 172 301q-16 76 -22 112q-12 59 -25 121l17 -70q-20 53 -39 80q-59 80 -160 80 q-27 0 -57 -6q-117 -27 -228 -57q-223 -63 -223 -107q0 -33 33 -55q25 -16 39 -17q25 0 217 54q104 29 172 28q63 0 103 -11t40 -50q0 -98 -94 -236q-63 -90 -178 -206q-92 -92 -97 -93q-98 -98 -256 -245q-133 -125 -161 -158q-55 -63 -56 -109z" />
<glyph unicode="3" horiz-adv-x="1255" d="M-2 205v71q10 8 22 21q33 33 60 65q8 -61 14 -98q27 -131 262 -131h205q47 0 240 135q213 150 213 234q0 70 -117 137q-135 78 -315 78h-164q-10 -4 -19 -6q-18 -6 -32 -6q-23 0 -37.5 16t-14.5 57q0 49 121 101q186 80 281 147q205 150 301 248q59 61 78 121 q-8 25 -47 24q-25 0 -64 -12q-12 -4 -36.5 -13.5t-218 -60.5t-200.5 -51q-39 0 -65.5 21.5t-26.5 60.5q0 45 257 109.5t329 64.5q102 0 158 -27q78 -37 78 -127q0 -51 -127 -198q-41 -49 -129 -139q-82 -55 -125 -82q-131 -82 -162 -82q270 -106 336 -164q84 -76 84 -248 q0 -176 -228.5 -329.5t-500.5 -153.5q-147 0 -278.5 65.5t-131.5 151.5z" />
<glyph unicode="4" horiz-adv-x="1386" d="M16 381q0 59 115 215q78 106 102 154q49 92 150 198q78 82 127 88v-133q-92 -102 -156 -211q-123 -211 -131 -219v-51h164q29 31 70 41q72 20 186 20h82l92 41q63 156 96 238q98 244 109.5 284.5t64.5 176.5q47 119 90.5 218t51.5 115q45 86 82 86q31 0 56.5 -25 t25.5 -56q0 -45 -26 -49.5t-26 -32.5l-114 -228q-6 -18 -15.5 -93t-46.5 -163q-76 -184 -159 -368q-35 -78 -35 -103q0 -8 25.5 -25.5t25.5 -45.5q-68 -51 -121 -118t-53 -171l-164 -359q-35 -59 -68 -161q-6 -23 -86 -43q-23 68 -22 71q4 2 6 2q16 4 16 70l-12 8 q-14 12 -14 37q0 16 6 47q29 121 152 350q53 98 53 123q0 23 -15.5 27t-46.5 4q-59 0 -176 -33q-66 -18 -121 -18q-10 -6 -18 -8q-57 -23 -145 -23q-80 0 -105 6q-72 18 -72 117z" />
<glyph unicode="5" horiz-adv-x="1945" d="M6 801q0 68 172 176q104 66 209 131q25 27 208 127t222 100q31 0 61.5 -33.5t30.5 -70.5q0 -43 -127 -44t-528 -315q63 6 104 9q125 8 226 8q74 0 138 -6t105 -21q182 -66 277 -164q113 -116 113 -286q0 -203 -220.5 -384.5t-476.5 -181.5q-137 0 -291 105 q-172 117 -172 256q10 23 17 37q20 49 35 96q104 -182 120 -203q84 -102 240 -137q12 -2 16 -2q14 -2 31 -2q88 0 188.5 45t189.5 122t128 122q57 68 57 123q0 16 -6 34q-45 139 -127 191q-139 86 -497 86q-16 2 -29 2q-39 0 -110.5 -7t-190.5 -26q-6 -2 -13 -2h-10 q-45 0 -67.5 33t-22.5 82zM899 1366q0 72 214 138.5t403 66.5q72 16 110 24q129 27 176 27q76 0 120 -17t44 -44q0 -35 -72 -54q-211 -45 -419 -90q-211 -55 -342.5 -89t-171.5 -34q-41 0 -51.5 19.5t-10.5 52.5z" />
<glyph unicode="6" horiz-adv-x="1445" d="M47 143q0 -141 170 -229q150 -78 342 -78q326 0 588 131q303 152 303 402q0 131 -174 204q-145 61 -328 62q-152 0 -373 -131q-211 -125 -272 -238h82q180 88 317 154q150 72 297 72q133 0 209 -41q88 -49 88 -154q0 -43 -79 -92q-92 -49 -115 -62q-186 -104 -236 -125 q-141 -59 -297 -59q-139 0 -239 76q-109 82 -109 211q0 43 45 133q18 35 37 72q57 131 139 262t168 229q104 119 191 201q125 119 241 194q140 92 265 117l82 -41q14 20 20 31q20 37 21 61q0 63 -21 92q-29 41 -102 41q-74 0 -158 -57q-66 -49 -129 -96q-203 -127 -313 -215 q-152 -121 -261 -266q-90 -119 -180 -236q-111 -152 -155 -268q-63 -162 -64 -357z" />
<glyph unicode="7" horiz-adv-x="1343" d="M8 1477q0 70 45 97.5t109 27.5q37 0 67 -7q4 0 15 -4q0 -27 -17.5 -46t-36.5 -38q0 -8 29 -19t107 -32q88 23 176 45q242 59 385 86q242 45 383 45q27 0 44 -30.5t17 -71.5q0 -82 -76 -191q-111 -147 -221 -292l-98 -160q-199 -322 -201 -326q-115 -190 -153 -264 l-144 -381q-49 23 -76 121q-8 33 -16 96l62 123q57 147 94 239.5t90 180.5q233 344 360 534q137 203 154 246q-57 0 -108.5 -5t-75.5 -5q-63 0 -314.5 -77t-374.5 -77q-59 0 -135 49q-90 59 -90 136z" />
<glyph unicode="8" horiz-adv-x="1828" d="M16 92q0 35 27 98q45 104 125 201q109 131 291 256q-98 100 -164 195q-72 102 -72 184q0 102 113 201q141 123 430 211q166 57 260 86q293 88 418 88q168 0 248 -23q131 -37 131 -141q0 -68 -107 -160q-35 -31 -108 -78q-4 53 24 107q33 45 68 90q0 23 -75 42t-202 19 q-137 -29 -217 -47q-229 -55 -379 -108q-289 -104 -348 -148q-113 -80 -112 -180q0 -37 86 -138.5t149 -117.5q88 55 176 113q193 119 359 209q213 115 278 114q25 0 28 -16t15 -21l8 -4q-8 -12 -12 -16q-16 -18 -175 -117.5t-196 -138.5q-119 -72 -178 -111 q-180 -119 -180 -145q61 -94 92 -152q92 -172 92 -278q0 -166 -175 -335t-357 -169q-195 0 -287 135q-74 109 -74 295zM152 20q0 -92 54 -148t171 -56q96 0 215 102q143 123 143 279q0 70 -39 151q-47 100 -135 176q-121 -104 -239 -209q-170 -172 -170 -295z" />
<glyph unicode="9" horiz-adv-x="1284" d="M6 453v102q10 8 21 16q20 20 20 107q10 29 23 59q39 88 102 187q84 133 232.5 319.5t297 287.5t279.5 101q160 0 244 -180q63 -137 63 -301v-143q-20 -35 -31 -66q-31 -96 -30 -244q0 -27 -92 -161q-152 -223 -172 -254q-94 -147 -95 -199q-39 -10 -61 -41 q-37 -51 -72 -164q-18 -61 -24 -158.5t-109 -97.5q-33 0 -57.5 36t-24.5 77q0 45 78 225q98 229 229 399v41q-63 -16 -190 -69q-225 -94 -385 -94q-100 0 -173 66.5t-73 148.5zM180 494q0 -51 39 -77t94 -26q90 0 226 55q158 63 288.5 150.5t247.5 247.5q37 53 90 143v164 q0 96 -22 172q-45 156 -162 156q-70 0 -137 -52q-76 -70 -119 -102q-31 -25 -113 -70q-14 -8 -41 -22q-6 -25 -11 -41t-91 -102q-63 -63 -170 -269q-119 -227 -119 -327zM694 -59l21 10zM868 1520q6 12 6 20t-6 21v-41z" />
<glyph unicode=":" horiz-adv-x="344" d="M16 84q0 23 35 52.5t47 29.5q43 0 63.5 -30t20.5 -73q0 -27 -25.5 -54t-47.5 -27q-37 0 -65 31.5t-28 70.5zM182 813q0 51 17.5 71.5t44.5 20.5q39 0 65.5 -22.5t26.5 -59.5q0 -23 -21.5 -54.5t-40.5 -59.5q-49 23 -67 39q-25 23 -25 65z" />
<glyph unicode=";" horiz-adv-x="636" d="M-12 -340q182 119 323 289q178 213 178 389q0 43 20.5 67.5t51.5 24.5q29 0 55.5 -32t26.5 -81q0 -170 -129 -354q-102 -147 -260 -268q-137 -106 -195 -107q-33 0 -43 13q-8 8 -28 59zM438 1087v82q16 14 27 21q35 23 55 22q25 0 48.5 -27.5t23.5 -66.5q0 -33 -32 -62.5 t-60 -29.5q-16 0 -41 31q-6 10 -21 30z" />
<glyph unicode="&#x3c;" horiz-adv-x="1224" d="M25 -315q0 12 6 18t6 12q0 117 47 164q25 25 25 62q10 6 14 10q16 16 16 41q-29 29 -41 49q-41 68 -41 156q0 100 127 288q98 145 246 314q84 94 170 188q23 29 78 66t117 77q55 102 82 164q82 186 81 297l62 41q20 0 35.5 -29.5t15.5 -82.5q0 -16 4 -19q2 -2 4 -2 l-100 -266q55 -2 96 -8q152 -29 152 -238v-102q-8 -6 -13 -11q-12 -14 -18 -30q-20 -78 -41 -154q-94 -59 -299 -194h-41v51q168 98 227.5 181t59.5 218q0 49 -15 80q-20 43 -57 43q-63 0 -127 -68q-47 -51 -57 -116l-451 -740q8 -2 15 -2h8q25 2 39 2q49 0 116 37 q211 115 283 137h41v-30q0 -98 -188 -201q-145 -80 -344 -106q-102 -14 -193 -166q-53 -100 -104 -203q-14 8 -19 6q-6 -4 -12 -6q-12 55 -12 72zM221 156h31q-12 31 27 80q27 33 55 53q-8 20 35 84q92 135 180 313q-143 -143 -223 -276q-53 -113 -105 -224v-30z" />
<glyph unicode="=" horiz-adv-x="1284" d="M6 215q0 82 586 309q82 31 319.5 87.5t286.5 56.5h10q12 0 27 2q37 0 57.5 -3t20.5 -16q0 -29 -154 -92q-199 -82 -647 -219q-115 -35 -230.5 -99.5t-230.5 -127.5q-4 12 -35 71q-10 20 -10 31zM139 698q0 49 116 89t173 65q92 25 141 35q154 37 187 37q43 25 92 32 q92 18 207 19q86 0 130 -17.5t44 -74.5q0 -23 -51.5 -32t-102.5 -9q-123 0 -378 -71t-517 -144q-29 0 -35 15t-6 56z" />
<glyph unicode="&#x3e;" horiz-adv-x="2136" d="M6 545q0 131 73 296t165 257q137 137 264 235q174 135 258 135q29 25 77 49.5t118 32.5q78 27 126 39q147 39 254 39q43 0 80 -6q166 -33 268.5 -141.5t102.5 -270.5q0 -43 86 -100q119 -78 164 -137q88 -115 88 -295q0 -199 -150 -346q-139 -137 -424 -228 q-170 -53 -355 -83.5t-367 -30.5q-367 0 -580 123q-248 143 -248 432zM160 504q0 -162 131 -246q195 -123 700 -123l637 133q14 0 103 51q119 68 192 154q105 121 105 256q0 121 -74 209q-45 53 -148 119q-2 -2 -16 -38t-29 -65q-35 8 -46 31t-11 64q0 27 3 72.5t3 47.5 q0 76 -22 125q-31 70 -111 123l-94 62q-8 -6 -13 -9q-16 -8 -32 -8q-20 0 -37 17q-16 -14 -29 -19q-12 -4 -33 -4q-14 0 -46.5 3t-41.5 3h-20q-16 -4 -25 -4q-49 -8 -101 -27.5t-67 -19.5q-10 0 -26 6q-18 -23 -204.5 -101.5t-277.5 -156.5q-166 -141 -254 -260 q-53 -74 -75 -160q-27 -70 -31 -88q-10 -47 -10 -147zM500 944q0 53 162 109q193 66 462 65q119 0 201 -41q106 -53 107 -153q0 -117 -185 -234q-201 -115 -399 -227q0 -23 38 -47.5t85 -24.5h678q-25 -39 -264 -101.5t-384 -62.5q-180 0 -248.5 58.5t-68.5 187.5 q43 113 66 168q72 170 98 170q29 0 48 -30.5t28 -82.5q82 0 196 68q125 74 148 158q-43 23 -77 32t-77 9h-194q-18 0 -103 -21q-43 -10 -82 -10q-27 0 -101.5 -46t-82.5 -46q-16 14 -25 24q-27 37 -26 78z" />
<glyph unicode="?" horiz-adv-x="1034" d="M16 1284q0 14 80 66q111 72 322 170q100 45 209 75q131 37 231 37q63 0 125 -63q80 -82 80 -213q0 -133 -113 -297q-80 -117 -213 -242q-104 -98 -114 -98q-211 -147 -326 -277q-94 -109 -188 -215q-25 39 -25 117q0 53 14 98q27 82 167.5 198t281.5 228q172 139 239 240 q47 68 90.5 157t43.5 111q0 55 -27 79t-107 24q-121 0 -314 -98.5t-384 -200.5q-31 0 -51.5 41t-20.5 63zM47 -182q0 29 32 55.5t60 26.5q29 0 60.5 -34t31.5 -69q0 -29 -36.5 -55.5t-65.5 -26.5q-37 0 -63 52q-8 16 -19 51z" />
<glyph unicode="@" horiz-adv-x="2048" d="M6 63q0 123 115 330q84 152 225 346q76 102 154 207q63 70 129 139q164 162 317 263q219 141 393 141q119 0 211 -92q107 -109 107 -287q0 -315 -109 -485q-47 -76 -219 -213q-55 -43 -79.5 -76t-32.5 -37t-58 -18q-14 -4 -45 -13q-100 -61 -201 -123q-94 -51 -127 -51 q-115 0 -180 46t-65 139q0 61 13 105t28 89q27 29 49 53.5t22 48.5q92 102 154 154q184 154 332 154q51 0 98 -21q100 -45 119 -155q6 -45 14 -91q106 57 146 220q12 53 18 151q10 31 10 74q0 106 -51 192q-61 102 -164 103q-131 0 -295 -113q-121 -84 -262 -231 q-86 -96 -171 -189.5t-138 -160.5q-131 -162 -213 -312q-111 -203 -111 -348q0 -94 78 -143q66 -41 158 -41q53 0 93 7t165 44q47 14 190 82q113 53 248 121q61 31 125 63q-53 -55 -104 -108q-141 -127 -310 -203q-240 -109 -510 -109q-156 0 -219 109q-47 82 -47 239z M684 307q0 -29 9 -46t34 -17q16 0 47 10q4 0 12 4q29 33 68 43t76 18l102 123q27 10 58 37q4 4 14 15q57 14 98 79q35 56 35 105q0 2 12.5 16.5t12.5 26.5q0 20 -28 27.5t-75 7.5q-41 0 -106 -6q-123 -96 -185 -154q-184 -176 -184 -289z" />
<glyph unicode="A" horiz-adv-x="1609" d="M16 -168q8 27 9 45q0 139 90 272.5t90 178.5q0 29 -36 48t-36 44q0 29 45 37q141 27 266 223q37 59 136 172q125 143 168 201l129 159l368 340q70 62 108 62h7q51 -8 95 -114.5t44 -237.5q0 -70 -12 -153t-37 -208q-2 -10 -9 -36.5t-7 -41.5q0 -25 14 -40t29 -15 q16 0 36 8q53 20 56 21q14 0 20 -17v-41q0 -23 -55 -53q-133 -76 -145 -117q-39 -125 -43 -141q-18 -63 -19 -76q2 -12 2 -33v-51q-8 2 -12 2q-14 0 -19 -12q-16 -88 -30 -143q-29 -106 -80 -107q-31 0 -51 25q-12 14 -29 55q-2 6 -2 17q0 51 46 209q56 194 87 255 q-8 2 -14 4q-35 -18 -68 -34l-8 30q-14 0 -14 -18q0 -8 2 -16q0 -2 2 -5q-137 -37 -285 -75q-295 -78 -379 -97q-47 -10 -188 -272q-47 -86 -133 -260q-14 -14 -52 -14q-12 0 -26 2q-4 0 -13 2h-38q-8 6 -9 16zM528 543q0 -12 27 -13h31q35 0 102 27q10 4 29 12q55 6 309 80 q84 23 242 72q14 27 21 58.5t7 51.5q-2 33 -2 48v12q4 8 4 10l21 60q-2 10 0 30l10 51q6 47 22.5 160t16.5 150q0 49 -18 71q-109 -94 -215 -186q-197 -225 -207 -236q-88 -100 -146 -163q-20 -20 -45 -47q-39 -47 -143 -160q-66 -72 -66 -88z" />
<glyph unicode="B" horiz-adv-x="1224" d="M6 102v41h51q55 -47 110.5 -64.5t117.5 -17.5h194q193 0 342 140q139 129 140 272q0 156 -138 215q-96 41 -282 41q-4 0 -20.5 8t-37.5 8q-29 0 -75 -16q0 -35 -37 -133q-29 -72 -56 -143q-45 -164 -53 -199q-14 -49 -61 -49t-69.5 45t-22.5 98q37 90 73 182 q94 229 140 353q76 203 75 235q-6 4 -8 8q-22 28 -22 70q0 20 18 27.5t43 7.5q45 0 53 -28.5t8 -104.5l-6 -174q94 45 146 71q158 82 198 123q117 94 164 139q82 80 82 181q0 29 -47 40t-65 11h-72q-25 0 -176 -55q-51 -18 -152 -58q-96 -12 -167.5 -53t-141.5 -82 q-29 0 -55.5 37t-26.5 68q0 16 135 81q147 72 249.5 102t201.5 58q98 25 215 25q127 0 177 -50.5t50 -185.5v-104q0 -31 -141 -150q-162 -131 -322 -260q156 -61 203 -94q166 -113 166 -285v-114q-29 -59 -57 -119q-80 -135 -189 -221q-156 -121 -348 -121q-135 0 -309 57 q-195 63 -195 137z" />
<glyph unicode="C" horiz-adv-x="1298" d="M16 348v133q61 119 97 183q102 188 141 239q102 137 178 223q59 68 119 136q39 41 78 84q102 102 202 159q147 86 285 86q104 0 141 -67q23 -41 23 -107q0 -223 -80 -401q-55 -123 -160 -234q-59 -59 -118 -116h-31v73q68 74 162 271q114 238 114 384q0 28 -11 41t-60 13 q-125 0 -342 -197q-106 -109 -213 -215q-53 -47 -193 -268q-155 -246 -155 -327q0 -21 -5.5 -52t-5.5 -41q0 -123 51 -174q43 -43 134 -43h32q12 2 19 2q68 6 261 80t212 74q12 2 31.5 4t70.5 16h31q-39 -72 -190 -155q-78 -43 -222 -103q-53 -27 -104 -51q-68 -20 -160 -21 q-111 0 -213 97q-119 111 -119 274z" />
<glyph unicode="D" horiz-adv-x="1460" d="M6 10q2 2 89 65.5t239 594.5q23 57 37 98q39 111 86 250q59 207 74.5 262t58.5 55q27 0 59.5 -21.5t32.5 -49.5v-113q-16 -14 -23 -21q-25 -25 -28 -30q-27 -63 -61.5 -186t-71.5 -255q-70 -160 -109 -288q-53 -172 -65 -193v-51q111 0 367.5 149.5t338.5 249.5 q104 127 162 232q84 154 84 291q0 162 -127 254q-116 83 -289 83h-4q-55 0 -97 2.5t-79 4.5q-51 0 -106.5 -6.5t-80 -23.5t-87.5 -17q-10 0 -24.5 -10.5t-27.5 -10.5q-16 0 -52 -25.5t-60 -25.5q-16 0 -28.5 22.5t-12.5 38.5q68 57 112 86q139 88 256 87q27 2 57.5 3.5 t87 10t132.5 8.5q39 0 61.5 -2t52 -7t59.5 -20.5t62 -32.5q174 -70 250 -165q99 -126 99 -306q0 -90 -82 -258q-72 -145 -164 -274q-35 -47 -144 -135q-96 -78 -194 -131q-168 -92 -195 -105q-287 -141 -512 -141h-61q-31 12 -43 18q-41 23 -29 39z" />
<glyph unicode="E" horiz-adv-x="1431" d="M16 178v103l215 481q86 172 127 315q31 104 119 105q8 14 19 20q31 20 94 21q8 0 23.5 5t17.5 5q59 41 211.5 71.5t371.5 30.5h154q23 0 39.5 -13t32.5 -38q-92 -63 -223 -92q-150 -20 -299 -41q-47 -14 -76 -16t-68 -15q-207 -66 -248 -102q-96 -84 -172 -369 q33 -8 56 -8q14 0 26 8q213 57 342 90t180 33q10 0 28 -12t34 -23q-25 -43 -21 -59q2 -6 0 -8q-18 -29 -206 -84q-121 -37 -340 -88q-90 -23 -181 -43q-31 -57 -45 -93q-47 -109 -47 -163q0 -39 39 -45.5t74 -6.5l276 21h31q2 10 51 10h41q68 0 117 29q43 33 88 65 q12 0 21 -12q24 -30 24 -61q0 -29 -24 -41q-100 -57 -201 -113q-127 -41 -322 -41h-92q-127 0 -168 8q-119 25 -119 166z" />
<glyph unicode="F" horiz-adv-x="1519" d="M6 86l133 451q-16 8 -24 14q-27 23 -27 57q37 8 85 77t89 210l103 276q-16 25 -48 25q-8 0 -57 -10q-20 -4 -39 -4q-23 0 -31 6q-10 8 -10 35q0 39 24.5 65.5t78.5 26.5l276 82l799 123q92 0 133 -13t41 -49q0 -20 -10 -43q-2 -6 -11 -18q-168 -29 -254 -41 q-258 -41 -278 -41q-49 -16 -100.5 -30.5t-109.5 -19.5t-123.5 -11.5t-89.5 -21.5t-24 -50q0 -12 3 -27q2 -12 4 -25q-31 -33 -45 -57q-47 -78 -48 -168q-23 -47 -43 -92q-29 -61 -49 -123h92q127 27 246 70q92 33 109 33q27 0 39 -41q2 -6 2 -11q0 -48 -123 -100 q-98 -37 -140 -54.5t-89.5 -23.5t-155.5 -37q-66 -18 -114 -280t-142 -262q-25 20 -35 32q-37 41 -37 70z" />
<glyph unicode="G" horiz-adv-x="1519" d="M-2 342q0 221 172 426q203 195 258 250q63 63 285 172q276 135 450 135q53 0 109 -35q45 -29 45 -67q0 -29 -10 -78q-2 -16 -11 -45q-59 -76 -206 -160q-129 -74 -191 -86q-10 -2 -8 14.5t8 26.5q14 25 174 143q55 61 111 123h-101q-164 0 -348 -110q-100 -61 -235 -177 q-158 -135 -258.5 -280t-100.5 -252q0 -86 129 -152q100 -51 148 -51h225q133 0 227.5 22.5t192.5 49.5q4 0 18.5 10t20.5 10q82 35 123 58q123 70 123 135q0 47 -84 98q-106 66 -263 66h-174q-33 -14 -61 -21q-88 -20 -215 -20q-29 0 -65.5 24.5t-36.5 57.5 q0 61 107.5 81.5t332.5 20.5q297 0 465 -110q137 -91 137 -238q0 -104 -219 -215q-72 -37 -219 -90q-119 -47 -185 -64q-107 -28 -227 -28h-8q-63 0 -111.5 3t-103.5 7q-164 0 -287 94q-133 102 -133 252z" />
<glyph unicode="H" horiz-adv-x="1357" d="M-2 104q0 96 92 330q23 55 174 408q94 217 94 258q31 59 45 96q47 119 48 211h81q31 0 36 -36t5 -56q0 -68 -57 -215q-58 -146 -112 -285q-48 -121 -47 -159q0 -6 1 -9q68 8 109 15q119 20 219 57q25 10 163 37.5t144 34.5q41 96 62 151q61 168 61 250q25 2 33 22 q18 41 18 121q23 45 35 66q38 67 57 67h1q18 0 44.5 -35t26.5 -47q-18 -90 -33 -153q-41 -174 -106 -402q18 -6 49 -6q27 2 37 2q29 0 33 -26q4 -25 0 -31l-154 -92q-37 -23 -104 -186q-80 -195 -80 -347q-16 -57 -27 -86q-37 -88 -76 -88q-20 23 -30 35q-31 41 -31 78 q35 145 53 221q57 229 80 270q2 4 13.5 17.5t7.5 23.5q-2 10 -19 11q-10 0 -24.5 -5.5t-18.5 -5.5q-143 -27 -333.5 -78t-272.5 -85q-41 -18 -66 -103q-6 -27 -16 -82q-10 -20 -10 -41v-51q-18 -61 -33 -92q-43 -92 -90 -92q-14 0 -45 33q-37 39 -37 79z" />
<glyph unicode="I" horiz-adv-x="489" d="M18 61q6 57 13 101q41 242 151 526q33 135 73 270.5t91 253.5q2 35 6 52q14 51 56 51q39 0 69 -62l12 -30l-215 -760q-55 -90 -69.5 -286.5t-124.5 -196.5q-20 10 -31 18q-31 27 -31 63z" />
<glyph unicode="J" horiz-adv-x="1210" d="M8 350q0 14 12.5 41t32.5 27q39 0 184.5 -188.5t227.5 -188.5t178 129q84 113 84 158q2 0 49 110q57 135 101 262q59 178 75 295q6 53 47 177t56 233q8 72 16 145q18 82 76 82q27 0 36 -23.5t9 -70.5q0 -16 -2 -54.5t-2 -58.5q0 -16 -33 -191t-65 -345q-18 -92 -35 -182 q-14 -33 -21 -52q-23 -59 -31 -92t-61 -147q-66 -139 -139 -262q-94 -156 -170 -228q-35 -10 -58 -14q-74 -16 -116 -16q-119 47 -197 114q-129 115 -244 307q-10 20 -10 33z" />
<glyph unicode="K" horiz-adv-x="1622" d="M27 84q45 182 65 274q68 283 68 291q33 72 51 119q57 145 82 270q29 117 45 174q53 174 98 174q33 0 52.5 -31.5t19.5 -70.5t-25.5 -123t-25.5 -123q-14 -37 -25 -69q-63 -188 -149 -494q-47 -227 -93 -452q-16 -41 -102 -41q-25 0 -43 32.5t-18 69.5zM518 700 q0 76 440 471q102 80 164 129.5t95 85.5q72 72 150.5 133.5t105.5 61.5q16 0 57 -37q24 -23 24 -35q0 -29 -153 -170q-51 -47 -154 -137q-131 -115 -208.5 -180.5t-110.5 -65.5q0 -6 -2 -12q-18 -39 -101 -121q-47 -47 -85 -78.5t-38 -44.5q0 -10 74 -102q86 -109 172 -215 q18 -33 129 -141q104 -102 129 -117q18 -6 40 -13.5t22 -27.5q0 -14 -14.5 -43t-36.5 -29h-52q-84 49 -133 84q-154 109 -246 220.5t-135 166.5q-133 172 -133 217z" />
<glyph unicode="L" horiz-adv-x="1136" d="M6 104q0 139 107 355q143 289 159 342l166 309q8 14 43 55q23 25 29 37q55 96 72 117q70 88 143 88q12 0 37 -41q8 -12 24 -41q0 -14 -81 -108q-49 -55 -62 -76q-43 -66 -96 -162q-35 -63 -58 -107q-12 -18 -18 -28q-20 -33 -22 -43q-2 0 -56 -103q-59 -115 -119 -239 q-76 -162 -114 -273q-4 -16 -4 -20q0 -8 4 -21q4 -14 24 -14q6 0 31 7t37 7q2 0 158 43q178 49 313 84q186 49 234.5 56.5t75 14.5t30.5 7q12 0 20.5 -20.5t8.5 -30.5q-1 -12 -9 -20q-29 -33 -183.5 -101.5t-235.5 -83.5q-162 -49 -273.5 -75.5t-189.5 -26.5q-63 0 -119 22 q-76 31 -76 90z" />
<glyph unicode="M" horiz-adv-x="1916" d="M6 51q0 39 80 193q43 82 150 266q39 68 79 137q23 57 86.5 167t128.5 222q18 49 39 101q27 53 74 53q25 -14 35 -25q37 -35 37 -67q-16 -8 -37 -53.5t-35 -131.5q70 37 174 127q186 160 248 160q47 0 59.5 -35t12.5 -98q0 -41 -10.5 -67.5t-10.5 -45.5q0 -66 -3 -117 t-7 -77q80 78 162 155q211 199 321 293q186 158 236 158q27 0 59.5 -43t32.5 -70q0 -78 -62 -254q-72 -186 -143 -372q-10 -51 -45 -135q-41 -92 -80 -185q-33 -104 -63 -209q-27 -78 -60 -78q-20 0 -56 38t-36 65q10 12 14 22q16 37 17 91q23 66 45 133q57 166 111 299 q74 188 143 317q8 16 8 43q0 18 -2 32.5t-6 26.5q-14 -4 -96 -69q-199 -160 -336 -330q-16 -20 -232 -323q-84 -119 -149 -119q-20 0 -41 29.5t-21 72.5q53 125 94.5 268.5t41.5 245.5v82q-63 -6 -197 -131q-106 -100 -217 -229q-51 -61 -100 -123q-78 -88 -220 -332 q-87 -149 -160 -149h-1q-20 16 -31 24q-31 29 -31 47z" />
<glyph unicode="N" horiz-adv-x="1798" d="M16 63q0 45 59.5 162t227.5 404q45 76 90 151q88 143 166 242q102 129 154 129q35 0 53 -32t18 -101q0 -25 36 -188.5t36 -190.5q0 -37 39 -174q47 -166 84 -166q74 0 229 274q96 180 193 363q59 102 88 181t55 157q39 78 94 211q43 106 91 106q35 0 48 -29.5t13 -72.5 q0 -45 -76 -229q-47 -117 -145 -328q-78 -168 -86 -180q-135 -223 -269 -447q-141 -190 -235 -190q-61 0 -152 151q-74 125 -104 312q-10 20 -12 47q-8 55 -9 116q-6 4 -8 7q-22 24 -22 81v5h-31q-37 -23 -113 -148q-82 -141 -163 -283q-55 -61 -121 -192 q-111 -219 -166 -219q-37 0 -49.5 18.5t-12.5 52.5z" />
<glyph unicode="O" horiz-adv-x="1519" d="M16 219q12 53 27 109q47 139 135 278q123 195 320 371q256 231 436 338q188 112 319 112h2q68 0 148 -104t108 -213q8 -35 12.5 -61.5t4.5 -63.5q0 -35 -6.5 -75t-20.5 -87q-27 -88 -78 -153q-51 -59 -86 -103q-49 -59 -311 -239q-287 -197 -405 -232q-78 -35 -123 -51 q-139 -51 -226 -51q-111 0 -183.5 62.5t-72.5 162.5zM158 215q0 -25 12 -37q27 -27 49 -26q14 0 31 4q47 10 53 12q88 16 234 70q203 76 376 180q225 135 373 303q31 35 62.5 112.5t40.5 153.5q2 18 2 37.5v28.5v43t-2 24l-41 -51h-41q0 100 -9 139q-14 66 -53 66 q-29 0 -47 -9.5t-35.5 -14.5t-37 -15t-23.5 -12q-74 -16 -283 -187q-145 -119 -219 -192q-236 -236 -350 -412q-92 -141 -92 -217z" />
<glyph unicode="P" horiz-adv-x="1521" d="M6 20q0 45 197 555q121 311 170 404q43 78 86 78q33 0 45 -8q26 -17 26 -70q0 -57 -71.5 -213t-71.5 -201q0 -14 21 -14q16 0 90 16q106 23 186 39q53 16 86 31q98 41 191 102q178 121 247 195q102 111 144 276q2 6 2 23q0 72 -68 145q-74 80 -162 80q-25 12 -39 17 q-47 18 -84 24q-129 -18 -200 -33q-219 -45 -312 -100q-43 -25 -70.5 -56.5t-51.5 -58.5q-12 -4 -19 -4q-12 -2 -12 4q0 31 -8.5 64t-8.5 41q0 18 17 41q59 51 96 76q112 77 178 77h2q8 8 19 13q61 31 196 49q39 6 66 10t57 4h23q18 -4 28 -4q203 -18 332 -102 q162 -105 162 -289q0 -176 -72 -291q-59 -96 -217 -221l-112 -92l-93 -62q-55 -37 -227 -90t-254 -53q-78 0 -113.5 9t-70.5 22q-39 0 -112.5 -262.5t-145.5 -262.5q-33 0 -52.5 28t-19.5 64z" />
<glyph unicode="Q" horiz-adv-x="1683" d="M-4 299v123q14 45 29 92q45 119 116 236q98 160 246 307q35 45 51 65q31 37 92 78q74 47 273 197q154 115 264 166q152 69 319 69h5q86 0 198 -112q141 -141 142 -340v-82q0 -180 -135.5 -402.5t-338.5 -365.5q-172 -121 -233 -396q-51 -223 -94 -333q-57 14 -74 53 q-8 18 -8 70q0 25 25.5 111.5t25.5 166.5v31q14 14 31 30v62h-72q-90 -37 -246.5 -69.5t-275.5 -32.5q-143 0 -238 71q-102 78 -102 205zM160 319q0 -53 37 -86q55 -47 180 -47q164 0 276 35q37 10 82 37q195 0 273 135q63 188 127 377h82q4 -25 17 -47.5t13 -34.5 q0 -29 -4 -39q-6 -14 -26 -33v-133q145 53 262 254q108 188 108 340v51q16 37 17 82q0 53 -22.5 92t-76.5 54v-41q2 -5 2 -15q0 -34 -29 -122q-36 -111 -83 -111q-4 0 -4 6v25q-14 39 -15 82q0 27 8 59q20 82 21 117q0 31 -2 49t-12 63h-41q-92 -20 -203 -59t-268 -158 q-18 -14 -71.5 -44.5t-62.5 -37.5q-59 -51 -118 -100q-94 -84 -158 -156q-102 -115 -203 -229q-90 -123 -106 -293v-72z" />
<glyph unicode="R" horiz-adv-x="1552" d="M16 2q0 29 119 333t148 355q57 102 127 256q98 215 98 287h51q72 -17 72 -103q0 -53 -99.5 -274t-195.5 -432q-104 -233 -105 -279q0 -25 -51 -118q-57 -106 -92 -107q-39 0 -55.5 21.5t-16.5 60.5zM139 1305q104 154 279.5 230.5t396.5 76.5q51 0 95 2t89 4 q47 0 116 -9.5t151 -19.5q59 -14 125 -59q55 -37 112 -74q53 -43 53 -108q-2 -15 -2 -23q-12 -129 -186 -293q-33 -31 -246 -198q-57 -45 -342 -197q-200 -105 -200 -181q0 -42 104 -155q84 -90 203 -176q131 -94 217 -150q59 -37 133 -75q8 -10 0 -41q-6 -23 -37 -37.5 t-47 -14.5q-115 47 -186 91q-115 70 -224 165q-111 84 -163 136q-164 156 -164 256q0 131 131 201.5t196 109.5q201 119 287 180q152 106 254 205q117 113 117 169v5q-6 53 -96 105q-106 61 -242 61q-35 0 -53 -2q-106 -10 -227 -21.5t-255 -40.5q-14 -4 -20 -6 q-14 -4 -31 -4q-10 0 -71 -26q-10 -4 -31 -15q-49 -35 -76 -51q-86 -55 -129 -72q-8 -2 -20 11q-23 23 -11 41z" />
<glyph unicode="S" horiz-adv-x="1667" d="M6 1069q0 133 207 238q127 59 254 120q61 31 273 92.5t280 61.5q14 0 40.5 10.5t41.5 10.5q51 8 114.5 14t92.5 6q49 0 90 -7t84 -13l51 -11q35 -6 51 -12q53 -18 72 -49q12 -23 12 -35q0 -14 -2 -25q-10 -46 -10 -73q0 -78 -81 -163t-144 -85q-14 0 -21 2q59 72 94 127 q49 78 49 119q0 33 -31.5 52t-70.5 19l-197 21q-18 0 -48.5 -7t-79 -16.5t-273.5 -72.5q-80 -23 -233 -68q-158 -57 -236 -92q-235 -104 -235 -163q0 -34 182 -130q211 -100 422 -199q295 -166 331 -196q160 -127 160 -307q0 -127 -145 -244q-111 -90 -244 -135 q-16 -4 -39.5 -11.5t-56.5 -7.5q-41 0 -68 4q-41 10 -61 15q-156 37 -264 164q-94 111 -95 204q0 31 37 77t76 46h31v-14v-27q-4 -25 -37 -57l-14 -14q29 -82 61 -123q102 -123 307 -123q123 0 240 71q139 86 139 216q0 92 -131 190q-92 70 -279 158q-123 57 -248.5 115.5 t-254.5 119.5q-193 106 -193 207zM1241 1094q0 18 7 34.5t46 16.5q27 0 64 -12q13 -5 33 -13q-33 -16 -50 -24q-31 -16 -43 -37h-53q-4 23 -4 35z" />
<glyph unicode="T" horiz-adv-x="1667" d="M6 1200q0 35 254 85t301 50q39 0 62 2q88 8 102 9q86 12 172 26q213 31 369 49q231 27 342 27q71 0 71 -51q0 -39 -69.5 -62.5t-196.5 -40.5q-12 -2 -39.5 -6t-42.5 -4q-104 -25 -174 -37q-209 -37 -381 -37q-55 0 -375 -55q-106 -18 -313 -57q-27 0 -54.5 33.5 t-27.5 68.5zM254 92q0 39 87 231.5t87 221.5q25 39 35 59q37 66 37 74q14 6 20 12q20 25 21 80q0 6 10 28.5t20.5 46t27.5 153.5t95 130q41 0 54.5 -13t13.5 -40q0 -16 -2 -34.5t-4 -34.5q0 -74 -41 -183q-47 -119 -92 -237l-144 -330q-35 -59 -53 -162.5t-100 -103.5 q-25 0 -45 24q-27 31 -27 78z" />
<glyph unicode="U" horiz-adv-x="1329" d="M6 350q0 141 129 457q136 336 247 336q7 0 15 -2q18 -4 24.5 -19.5t6.5 -64.5q0 -12 -74 -148q-100 -184 -139 -272q-74 -168 -74 -266q0 -86 45 -149.5t129 -78.5l62 -10q354 0 577 295q188 248 224 598q10 96 20 139q20 76 55 76q12 0 27 -8q51 -35 51 -105 q4 -12 8 -27.5t4 -41.5q0 -21 -2 -33q-8 -45 -66 -213t-87 -227q-96 -199 -139 -264q-29 -43 -99 -117q-98 -102 -270 -163.5t-354 -61.5q-98 0 -203 106q-117 121 -117 264z" />
<glyph unicode="V" horiz-adv-x="1284" d="M6 371v153q29 82 41 135q43 168 43 295q0 10 -15.5 25.5t-15.5 26.5q4 6 7 8q6 10 6 20q0 18 -13 33h62q59 0 75.5 -46t16.5 -128l-72 -533q0 -45 23.5 -131t58.5 -86q20 0 84 29q109 49 205 135q137 123 244 309q51 92 155 232l144 188q37 57 73 117q51 70 101 70 q33 0 55 -62q6 -20 16 -61q-106 -121 -177.5 -207t-98.5 -133q-59 -104 -100 -168q-119 -184 -230 -313q-68 -78 -243 -185q-188 -114 -277 -114h-2q-43 0 -96 92q-70 121 -70 299z" />
<glyph unicode="W" horiz-adv-x="2048" d="M-6 424q0 117 4 223.5t27 186.5q4 10 7 26.5t3 24.5q4 82 8 173t12 165q2 18 6.5 47.5t4.5 54.5q-8 14 -9 27q0 10 9 24q4 43 14 74q23 59 88 59q16 0 44 -34.5t28 -88.5v-61q-25 -14 -43.5 -85t-18.5 -202q-20 -84 -31 -129q-30 -133 -30 -175v-50v-8v-58.5v-173.5 q12 -141 26 -211q45 -210 137 -210h1q59 0 215 215q147 203 174 288q61 170 123 342q51 168 51 262v62q27 82 41 123q47 123 71 123q59 0 65.5 -85t6.5 -192l-10 -102q-8 -41 -15.5 -80t-7.5 -70q0 -45 7.5 -85t25.5 -103q4 -14 8 -28.5t13 -33.5q29 -123 53 -184 q76 -184 182 -184h41q207 35 340 241q113 176 113 363l82 369q10 33 20 195.5t62 162.5q23 0 53 -35q39 -43 39 -98q0 -23 -36 -189.5t-36 -199.5q0 -63 -49 -240q-57 -207 -146 -416q-43 -100 -182 -193t-250 -93q-113 0 -245 116q-143 125 -144 263q0 16 -21.5 72.5 t-29.5 70.5q-20 -14 -57 -99t-76 -178q-72 -121 -119 -188q-33 -45 -65 -88q-43 -113 -126 -181.5t-171 -76.5q-23 0 -74 33q-88 57 -139 157q-74 143 -74 365z" />
<glyph unicode="X" horiz-adv-x="1269" d="M6 -236q31 109 53 175q70 199 154 329q113 176 215 291q141 158 143 170q1 3 1 7q0 34 -46 126q-59 117 -118 236q8 20 14 30q20 33 37 33q41 0 101.5 -98t123.5 -201h1q20 0 128 123q158 180 219 240q133 131 197 131q25 0 33 -19.5t8 -52.5v-24q0 -27 -10 -37 q-10 -2 -21 -6q-43 -16 -92 -66q-29 -29 -72 -86q-68 -90 -104 -131q-4 -4 -26.5 -28.5t-38 -36t-61.5 -71t-48 -59.5q-18 -12 -35 -22q-16 -14 -17 -39q0 -16 72 -158.5t143.5 -287t71.5 -171.5q0 -18 -21.5 -49.5t-39.5 -31.5q-8 0 -41 -11q-12 -4 -23 -4q-16 0 -18 15 q-27 129 -107 319q-86 205 -139 246q-84 -70 -180 -183q-139 -162 -217 -309q-104 -199 -105 -370q0 -41 -43 -41q-49 0 -70.5 33.5t-21.5 88.5z" />
<glyph unicode="Y" horiz-adv-x="1300" d="M16 1407q0 35 28 58.5t54 23.5q29 0 49 -76q80 -291 115 -364l144 -441q0 -33 -33 -67q-4 -6 -19 -15q-35 35 -88 144q-27 53 -76 164q-27 57 -43 104q-29 82 -49 172q-25 76 -43 137q-39 125 -39 160zM291 84q0 117 43 258q10 39 119 209q92 145 198 307q55 84 113 170 q39 76 94 150q66 84 131 168q37 59 121 155q115 131 166 131q16 0 28.5 -28.5t12.5 -63.5q0 -53 -68 -117q-49 -47 -65 -67q-131 -182 -180 -246q-109 -141 -118 -155.5t-120 -166.5q-59 -82 -135 -231q-86 -143 -127 -217q-129 -229 -129 -274q-6 -23 -6 -35q0 -14 6 -37 q-6 -2 -10 -2q-29 -10 -41 -8q-33 2 -33 100z" />
<glyph unicode="Z" horiz-adv-x="1826" d="M-4 84q0 33 122 154.5t314 273.5q222 174 447 311q45 29 174 148q43 41 123 119q0 25 -81 32.5t-227 7.5q-35 2 -59 3q-41 0 -98.5 -7.5t-149.5 -25.5q-31 -6 -47 -6q-25 0 -45 26q-8 10 -8 25q8 31 8 57q0 43 20.5 59.5t55.5 16.5q10 0 33.5 -2t33.5 -2l123 10h144 q227 0 369.5 -47t142.5 -137q0 -51 -154 -185q-180 -145 -358 -288q-4 0 -150 -103q-172 -121 -272 -200q-61 -63 -121 -127q10 -6 35 -7q66 0 337 54.5t345 54.5q100 14 164 20q193 20 327 21q86 0 170 -37t84 -63q0 -12 -29 -13q-215 0 -423.5 -33.5t-415.5 -68.5 q-201 -53 -384.5 -93t-365.5 -40h-45q-88 0 -113.5 21.5t-25.5 70.5z" />
<glyph unicode="[" />
<glyph unicode="\" />
<glyph unicode="]" />
<glyph unicode="^" />
<glyph unicode="_" />
<glyph unicode="`" />
<glyph unicode="a" horiz-adv-x="991" d="M12 188q0 143 146 306q35 39 182 186q119 119 262 203q162 94 281 94q76 0 95 -19.5t19 -83.5q0 -55 -15 -83.5t-62 -38.5q-10 61 -19.5 76.5t-48.5 15.5q-35 0 -152 -74q-135 -92 -268 -182q-29 -16 -147 -170q-139 -178 -140 -250q0 -10 39 -25.5t54 -15.5l143 72 q49 25 65 32q35 18 68 39q66 41 135 115q125 131 142 131q16 0 45 -31q36 -38 36 -80q0 -25 -11 -35t-19 -18q3 -7 3 -26q0 -77 -48 -344q-31 -166 -45.5 -173.5t-26.5 -7.5q-63 0 -88 193q-6 63 -10 194q-98 -61 -152 -92q-166 -94 -217 -94h-72q-76 0 -125 57.5t-49 128.5 z" />
<glyph unicode="b" horiz-adv-x="1153" d="M-4 156q0 51 135 321q199 395 250 508q137 299 137 412q0 14 -8 24q-23 29 -23 68q0 102 76 125q39 8 78 18q14 -23 27.5 -51.5t13.5 -40.5q0 -29 -20.5 -78t-20.5 -82q0 -20 10 -55l-205 -532q150 78 263 133q123 61 219 61q45 0 117.5 -38t80 -93t16.5 -107.5t9 -78.5 q0 -40 -27 -144q-25 -41 -43 -67q-113 -160 -286 -334q-102 -102 -244 -160q-113 -45 -197 -45q-102 0 -219 62q-139 74 -139 174zM160 115q0 -23 53 -42.5t80 -19.5q219 0 462.5 241.5t243.5 446.5q0 49 -24.5 86t-56.5 37q-14 0 -183 -82q-55 -27 -166 -82 q-23 -27 -45 -36q-57 -27 -88 -56q-10 -10 -59 -83.5t-64 -92.5l-30 -31q-12 -33 -21 -49q-18 -39 -39.5 -82t-50.5 -120q-4 -12 -12 -35z" />
<glyph unicode="c" horiz-adv-x="1048" d="M6 238q0 129 96.5 315t210.5 291q127 115 299 227q215 141 306 141q82 0 108 -79q14 -45 14 -156v-133q0 -18 15.5 -36t14.5 -26q-12 -37 -19 -55q-27 -57 -52 -57q-53 0 -72.5 78.5t-19.5 197.5q0 31 -7 58.5t-23 44.5q-23 0 -134 -62q-154 -86 -288 -221 q-184 -184 -285 -426q-6 -29 -8 -58.5t-2 -54.5t61 -57q45 -25 92 -25q76 0 242 46.5t188 46.5q6 0 3 -17.5t-3 -23.5q-25 -43 -49 -68q-150 -147 -483 -147q-61 23 -92 41q-92 61 -92 153q-8 4 -11 8q-10 16 -10 54z" />
<glyph unicode="d" horiz-adv-x="1519" d="M10 164q0 20 6 43q53 209 199 389q117 143 277 252q121 82 233 125q35 14 70 14q100 0 174 -113q30 -61 61 -122q45 33 148 180q131 188 131 301q20 37 30 55q31 59 31 78q-6 20 -8 33q-8 39 -8 71q0 35 7 57.5t30 33.5q33 16 55 16q20 0 46 -15.5t26 -56.5 q0 -27 -9.5 -57.5t-15.5 -50.5q0 -55 -23 -137q-39 -145 -127 -302q-119 -213 -323 -442q-127 -143 -275 -240q-133 -76 -155 -90q-14 -8 -150 -94q-172 -110 -238 -110h-1q-88 0 -139.5 53t-51.5 129zM170 164q6 -18 41 -19q59 0 162 66q113 80 227 160q57 20 192.5 139 t135.5 149q0 31 -23 76q-29 57 -64.5 66.5t-70.5 9.5q-150 0 -317 -168q-97 -110 -191 -221q-49 -49 -70.5 -105.5t-21.5 -119.5v-33z" />
<glyph unicode="e" horiz-adv-x="931" d="M-4 332q0 88 57 194q68 127 189 226q84 76 137 112q164 113 303 113q160 0 211 -43q45 -37 45 -141q2 -12 2 -19q0 -35 -12 -63q-25 -41 -41 -72q-29 -51 -235 -138t-277 -87q-33 0 -121 32q-14 4 -43 19q-16 -29 -28.5 -53.5t-12.5 -69.5q0 -104 77 -154.5t251 -50.5 q74 0 155 31q39 14 80 31q10 0 21.5 -12.5t19.5 -22.5q-88 -88 -194 -133q-88 -37 -174 -37q-168 0 -297 123q-113 109 -113 215zM313 604q29 -31 62 -31q20 0 38.5 8.5t32.5 16.5q121 23 229.5 85t108.5 99q0 20 -13 36t-28 16q-131 0 -272 -91q-115 -74 -158 -139z" />
<glyph unicode="f" horiz-adv-x="1431" d="M6 205q0 35 158 52t203 122q14 35 48 208t34 224q16 6 23 27.5t7 74.5q31 82 45 125q47 137 47 172q0 88 115 234q147 188 348 188q199 0 301 -176q78 -203 109 -256v-72h-62q-63 164 -145 267q-89 112 -201 112h-2q-68 0 -178 -88q-121 -96 -121 -178q-25 -61 -35 -94 q-37 -106 -36 -141q-49 -172 -72 -263q-72 -274 -72 -333q-2 -20 -2 -31q0 -31 23 -31q53 8 84 10q109 12 157 13q86 0 86 -23q0 -74 -120 -96q-180 -33 -187 -37q-113 -57 -123 -70q-20 -23 -20 -118v-99q0 -68 -11.5 -96.5t-19.5 -48.5q2 6 4 10q2 6 6 10q0 -41 -45 -112 q-51 -82 -98 -82q-16 0 -33.5 26.5t-17.5 65.5q20 68 37 139q45 184 65 293h-61q-14 -4 -64 -20q-31 -10 -59 -11q-45 0 -80 35t-35 68z" />
<glyph unicode="g" horiz-adv-x="1181" d="M4 -121q0 2 2 10h82q129 0 307 -77q123 -53 164 -66q10 -2 23 -6q8 -2 22 -2q115 0 248 774q-35 -20 -258 -102q-74 -27 -219 -78q-121 0 -209 77.5t-88 188.5q0 90 47 216t127 224q94 117 213 197q164 111 319 111q92 0 142 -62q43 -53 43 -133q0 -82 -76 -190 q-76 -109 -148 -109q-9 0 -18 2q39 63 80 129q39 76 39 158q0 71 -60 71h-2q-66 -10 -106 -26q-125 -49 -211 -158q-82 -88 -123 -143q-123 -170 -123 -297q0 -37 33 -66q41 -37 111 -37q90 0 260 76q133 59 190 98q139 92 178 254q31 125 88 125q55 0 80 -40t25 -93 q-84 -178 -154 -352q-80 -199 -94 -334l-102 -514q-53 -53 -102.5 -77.5t-106.5 -24.5q-55 0 -108.5 17.5t-123 63.5t-116.5 70q-141 74 -273 105q-8 2 -2 20z" />
<glyph unicode="h" horiz-adv-x="1241" d="M27 61q0 100 36 203q47 98 97 199q41 121 111.5 308t144.5 378q35 92 71 186q0 57 61.5 172t94.5 125q20 6 27 -10q4 -10 4 -45v-37q0 -27 -31 -143q-41 -154 -104 -320q-18 -51 -74 -213q-16 -51 -49 -145q199 168 356 270q170 111 291 111q57 0 121 -74q53 -63 53 -92 q0 -82 -43 -297q-57 -285 -141 -471q-55 -121 -109 -240q-66 -129 -106 -129q-18 0 -40 32t-22 50q0 37 103 311q96 256 133 334q20 76 28 121q31 145 31 225q0 49 -7 71t-32 22q-57 0 -211 -111q-115 -82 -258 -205q-63 -57 -127 -112q-80 -98 -112 -148q-66 -98 -123 -221 q-18 -80 -37 -158q-27 -57 -86 -57q-18 0 -34.5 38t-16.5 72z" />
<glyph unicode="i" horiz-adv-x="741" d="M16 37v37q0 78 76 200q37 59 37 117q31 63 47 101q53 119 66 178q6 27 73 161q78 156 101 156q16 0 37 -53q14 -37 14 -60q0 -20 -47 -133q-25 -59 -25 -102q0 -23 -25.5 -65t-25.5 -80l-61 -154l-21 -61q-4 -8 -19.5 -20.5t-23.5 -63t-49 -125.5q-55 -98 -113 -99 q-25 0 -33 16.5t-8 49.5zM559 1499q8 27 14 41q39 92 89 92q33 0 45 -22q22 -42 36 -54q-20 -37 -36 -57q-33 -41 -107 -41q-14 12 -20 17q-20 18 -21 24z" />
<glyph unicode="j" horiz-adv-x="1269" d="M16 20q12 59 23 91q33 96 80 135h31q0 -70 -20.5 -98.5t-20.5 -65.5v-92q0 -66 86 -176.5t151 -110.5q106 27 174 68q106 66 202.5 185.5t176.5 264.5q72 131 72 201q31 66 45 102q47 115 47 154q25 88 35 139q37 160 37 219q0 14 -2 17q-8 -6 -11 -6q-4 0 -6 8t-2 43 t-31 41v102q10 18 23 39q12 12 49 12q61 0 88 -43q20 -33 21 -88q0 -27 -2 -45q0 -6 -5 -18v-185q0 -49 -57 -274q-74 -287 -168 -475q-39 -74 -76 -146q-98 -170 -190 -272q-133 -145 -246 -145q-14 0 -30.5 -20.5t-30.5 -20.5q-193 0 -330 151q-113 125 -113 309z M950 1438v133q14 18 39 37q8 6 23 14q35 0 61 -37q21 -28 21 -55q-14 -27 -29 -39q-45 -43 -115 -53z" />
<glyph unicode="k" horiz-adv-x="1062" d="M16 74q0 33 87 267t87 265q0 41 50 209q27 90 94 297q49 152 51 152q23 37 27 55q16 61 45 129l32 106q33 78 91 78q14 0 26 -8q25 -18 25 -43q0 -31 -4 -43q0 -4 -6 -8q0 -35 -31 -90.5t-31 -104.5l-82 -266q-35 -109 -49 -200t-74 -138q6 -16 7 -38.5t4 -43.5 q20 6 149 164q141 172 219 236q41 35 88 92q56 71 115 71h2q25 0 43 -22t18 -49q0 -51 -33.5 -75t-68.5 -48q-115 -127 -143 -184q-12 -25 -92 -113t-156 -158q-49 -45 -49 -80q0 -39 147 -133q100 -66 277 -157q147 -78 149 -78q0 -29 -17.5 -55.5t-33.5 -26.5 q-82 0 -213 65q-88 43 -135 58q-92 27 -172 99.5t-156 145.5q-20 0 -90 -215t-125 -215q-33 0 -52.5 31t-19.5 72z" />
<glyph unicode="l" horiz-adv-x="710" d="M16 -254q0 74 43 199q8 23 113 301q96 256 152 434q20 53 49 135q51 145 113.5 332.5t93 331t51.5 143.5q45 0 64.5 -30.5t19.5 -78.5q-2 -16 -2 -24q-8 -76 -37 -195q-35 -139 -86 -286l-82 -226q-33 -113 -64 -188q-47 -115 -49 -129t-93 -267t-91 -268l-72 -327 q-8 -2 -15 -2q-32 0 -66 40q-42 50 -42 105z" />
<glyph unicode="m" horiz-adv-x="1519" d="M16 61q0 6 50 140q57 156 116 313q53 135 84 203q94 203 146 203q10 0 16 -7q27 -25 27 -71q0 -31 -16.5 -103t-20.5 -92q258 252 315 307q76 74 148 74q45 0 47 -47t4 -57q1 -5 1 -12q0 -42 -33 -150q-38 -125 -124 -340q23 23 45 47q72 74 148 145q96 92 260 238 q61 76 110.5 121t83.5 45q18 0 56.5 -36t38.5 -69q0 -53 -88.5 -294.5t-88.5 -270.5q0 -12 -18 -69q-66 -205 -84 -279q-2 -16 -18 -16q-23 0 -48.5 31.5t-25.5 66.5q12 49 21.5 115.5t9.5 150.5q0 4 53 160q41 119 59 190q-55 -14 -194 -172q-123 -143 -246 -284 q-137 -150 -186 -150q-45 0 -58.5 34t-13.5 89q0 70 29.5 169t62.5 202l61 164q-66 -18 -133 -94t-92 -101q-68 -68 -127 -131q-33 -35 -67 -76q0 -25 -31 -49.5t-31 -52.5q-37 -90 -57 -133q-63 -133 -98 -133q-33 0 -63 22.5t-30 58.5z" />
<glyph unicode="n" horiz-adv-x="1224" d="M6 45q0 39 118 270.5t118 272.5q0 14 34 88q20 45 28.5 74.5t31.5 29.5q25 0 47.5 -39t22.5 -82l-11 -92q61 33 207 144q164 123 246 172q147 86 274 104q12 2 33 2q39 0 52.5 -17.5t13.5 -51.5q0 -23 -3.5 -63t-3.5 -44q0 -84 -26.5 -209t-65.5 -242q-49 -178 -98 -354 q-29 -76 -76 -76q-18 18 -26 29q-31 37 -34 60.5t-3 48.5q0 74 41 184q104 283 114 375l21 194q-55 -8 -254 -131q-213 -131 -268 -207q-37 -31 -76 -71q-70 -74 -160 -185q-61 -76 -123 -166q-52 -79 -91 -79h-1q-23 0 -52.5 21.5t-29.5 39.5z" />
<glyph unicode="o" horiz-adv-x="813" d="M8 164q0 160 88 328q45 86 137 206q111 141 291 220q59 25 162 49q8 2 23 2q55 0 81.5 -79t26.5 -194q0 -152 -35 -225q-49 0 -53 16q-2 -2 -2 -4q-47 -119 -51 -127q-33 -57 -135 -172q-61 -61 -197 -139q-113 -65 -180 -65h-2q-35 0 -86 45q-68 59 -68 139zM182 184 q23 4 37 9q86 28 168 94q125 100 170 157.5t98 182.5q6 10 18.5 49t12.5 67q0 18 -4 33t-19.5 23t-27.5 8q-31 0 -76 -33q-14 -10 -39 -35q-8 -6 -45 -39q-47 -43 -119 -114q-61 -61 -117.5 -201.5t-56.5 -200.5z" />
<glyph unicode="p" horiz-adv-x="1329" d="M27 -322q0 117 235 633q33 70 117 273q35 84 108 229q6 39 15 76q18 72 57 98q18 12 33 12q25 0 37 -31.5t12 -84.5q0 -109 -41 -203q-55 -125 -88 -197q-82 -178 -147 -315q115 0 284.5 126t237.5 243l192 286q84 150 84 236q0 96 -55 129q-25 14 -109 24q-12 2 -28.5 2 h-24.5q-106 0 -215 -43q-129 -51 -264 -163q-31 -25 -55.5 -39.5t-53.5 -14.5q-16 0 -24 2q53 162 260 286t446 124q127 0 211 -111q74 -96 74 -206q0 -217 -315 -635q-76 -98 -246 -224q-210 -153 -336 -153h-2q-12 0 -20 8q-20 23 -72 23q-29 0 -106.5 -214t-77.5 -268 q-41 10 -62 19q-61 27 -61 73z" />
<glyph unicode="q" horiz-adv-x="929" d="M39 864q0 174 188 412q203 254 385 254q53 0 103.5 -58.5t50.5 -105.5l41 -113q0 -102 -115 -206q-61 -45 -121 -91h-30q10 27 82 84q51 41 51 162q0 63 -6 96q-16 88 -72 88q-127 0 -277 -225q-141 -213 -141 -356q0 -41 15.5 -62.5t50.5 -21.5q164 0 331 135 q156 148 314 295q20 0 20 -66q0 -63 -12 -141q-2 -14 -8 -39q-2 0 -88 -139q-94 -154 -189 -320q-121 -215 -174 -342q-66 -115 -99.5 -190.5t-33.5 -126.5q0 -37 -26 -115q-35 -100 -76 -100q-35 0 -53.5 27.5t-18.5 64.5v154q0 25 51 123q66 123 133 245q72 166 123 273 q33 70 72 139q-43 0 -102.5 -25.5t-112.5 -25.5q-137 0 -203 98q-53 82 -53 219z" />
<glyph unicode="r" horiz-adv-x="1224" d="M25 43q0 20 2 35q16 125 43 203q45 106 90 215q14 45 26 77q33 82 97 209q10 45 18 66q25 67 52 67h1q31 -8 45 -14q47 -20 47 -47q0 -20 -12 -76.5t-39 -138.5q197 141 336 227q100 61 189 101q49 20 88 37.5t59 23.5q66 20 145 21q14 0 22.5 -17t8.5 -35 q-49 -41 -78 -61q-86 -61 -127 -62q-55 -33 -108 -65q-154 -94 -234 -145q-141 -92 -209 -148q-104 -86 -155 -143q-45 -61 -90 -123q-45 -49 -64.5 -156.5t-79.5 -107.5q-4 4 -6 4q-12 6 -24 6q-20 0 -41 -10q-2 41 -2 57z" />
<glyph unicode="s" horiz-adv-x="1107" d="M16 238q0 43 7 53q6 12 28 12q29 -2 47 -2q8 0 113.5 -83t153.5 -83q63 0 86.5 25.5t56.5 25.5q25 23 35 37q37 45 37 78q0 102 -127 215q-119 92 -236 184q-129 106 -129 185q0 80 430 225q104 35 273.5 79t209.5 44q45 0 84 -25.5t39 -66.5q0 -12 -26 -39 q-53 -53 -76 -53h-82q-141 0 -240 -33q-127 -53 -223 -90q-4 -2 -87 -16.5t-128 -69.5q16 -18 155.5 -126t205.5 -188q100 -123 100 -245q0 -68 -35 -127q-20 -37 -67 -80q-23 -14 -41 -23q-57 -27 -123 -39q-8 -2 -27 -2q-104 0 -254 74q-160 80 -160 154z" />
<glyph unicode="t" horiz-adv-x="813" d="M16 102q0 176 47 287q80 188 89 217q-39 12 -72 25.5t-33 66.5t17.5 74t48.5 22q10 0 36.5 -5t38.5 -5q51 0 78 53.5t62 114.5q45 84 80 135q43 63 132 261t134 274q10 16 33 16q33 0 66.5 -27.5t33.5 -60.5q0 -43 -85 -195.5t-169 -299.5q-100 -178 -115 -234 q176 16 226 17q39 0 81 -17q-23 -53 -119 -96t-229 -57q-43 -4 -137 -193q-108 -213 -108 -390q0 -73 78.5 -156t156.5 -83h287q-10 -29 -19 -41q-27 -41 -63 -41q-8 -6 -17 -8q-53 -22 -138 -22h-7q-53 0 -85 4t-50 6q-94 12 -178 102q-100 109 -101 256z" />
<glyph unicode="u" horiz-adv-x="1136" d="M6 209q0 76 51.5 228.5t102.5 221.5q23 31 110 240q63 150 125 150q18 0 50 -36t32 -67q0 -2 -84 -147q-104 -180 -157 -299q-86 -190 -86 -291q0 -37 11 -50.5t36 -13.5q27 2 45 2q29 0 180 48l24 4q98 61 150 96q156 106 188 160q74 86 111 135q113 152 113 223 q0 6 -39 49q-32 36 -32 70q0 7 1 14l121 31q39 0 62.5 -21.5t23.5 -74.5q0 -12 -2 -27q0 -4 -2 -10q-20 -129 -90 -262q-59 -115 -123 -179q-158 -158 -355 -278q-223 -137 -362 -137q-37 0 -61 8q-55 18 -80 37q-33 27 -33 63q-10 14 -14 27q-16 41 -17 86z" />
<glyph unicode="v" horiz-adv-x="1269" d="M16 150v28q0 96 47.5 249t96.5 304q0 39 45 127t76 88q14 0 21 -21.5t7 -35.5t-3 -39t-3 -27q0 -6 -68.5 -292.5t-68.5 -344.5q0 -14 4 -18q5 -4 13 -4q43 0 167 104q102 86 260 244q66 68 133 137q94 90 160 162q23 27 55 63q84 133 115 175q104 143 156 143 q20 0 32.5 -26t12.5 -87q0 -27 -158 -217q-92 -111 -278 -321q-47 -53 -95 -107q4 4 9 10q2 2 4 5q-63 -61 -127 -121q-145 -133 -277 -228q-176 -125 -264 -125q-45 0 -58.5 48.5t-13.5 126.5z" />
<glyph unicode="w" horiz-adv-x="1579" d="M6 147q2 25 6 46q27 117 117 313q104 227 135 277.5t60 50.5q31 -12 45 -21q47 -29 47 -61q0 -25 -70 -142q-43 -68 -84 -135q-49 -94 -76 -192q-8 -33 -16 -84q115 47 250 194q80 86 198 244q92 123 107 123q8 -1 8 -19q0 -27 53 -53q29 -14 29 -29q0 -33 -15.5 -61.5 t-15.5 -30.5q0 -182 19 -264q31 -135 115 -135q20 0 55 18q129 66 295 289q106 143 159 270q61 150 97 150q37 0 50 -24.5t13 -53.5q-2 -20 -2 -24q0 -96 -98 -258q-70 -106 -137 -213q-29 -53 -195 -189q-183 -149 -257 -149h-1q-102 0 -170 104q-59 131 -117 264 q-27 -57 -209 -200q-201 -158 -282 -158q-57 0 -85 42t-28 111z" />
<glyph unicode="x" horiz-adv-x="1255" d="M6 -49q0 104 146 264q68 74 272 252q145 127 145 151q0 33 -16 68q-25 53 -36 105.5t-11 78.5q0 35 31 35h22q55 0 88 -92t55 -92q125 109 226 188q111 88 196 88q2 0 50.5 11.5t62.5 11.5q31 0 31 -23q0 -49 -11.5 -60t-60.5 -11q-156 -104 -231 -162 q-231 -172 -232 -227q35 -84 51 -136q51 -154 52 -243q0 -37 -31 -80q-10 -14 -31 -35q-18 29 -63 154q-76 207 -111 206q-63 -43 -98 -67q-106 -76 -148 -117q-121 -121 -157.5 -204t-36.5 -177q-16 -14 -27 -20q-31 -20 -45 -21q-29 14 -41 29q-41 45 -41 125z" />
<glyph unicode="y" horiz-adv-x="1357" d="M-4 -344q0 61 133 262q143 217 358 485q-20 45 -30 72q-31 82 -31 133q10 96 14 158q16 203 17 324q0 29 27.5 60.5t54.5 31.5q18 0 50 -38t32 -65q-8 -10 -13 -18q-28 -57 -28 -179v-8q0 -129 -4.5 -196.5t-6.5 -118.5q0 -35 11 -63q10 4 86 79q174 176 272 310 q70 76 106 116q117 127 140 160q20 37 39 62q37 51 63 51q20 0 41 -40t21 -63q0 -35 -168 -235q-55 -66 -170 -195q-61 -76 -129 -155q-135 -160 -189 -203q-109 -88 -264 -289q-41 -53 -240 -330q-117 -164 -151 -180q-29 35 -33 41q-10 14 -8 31z" />
<glyph unicode="z" horiz-adv-x="1241" d="M-4 842q0 31 30.5 42t82.5 11q23 0 46 -1t48 -1q68 16 108 25q124 26 185 26h4h391q68 0 100.5 -41t32.5 -102q0 -111 -221 -320q-141 -123 -283 -245q61 14 107 20q137 20 295 20q98 0 213.5 -19t115.5 -42q0 -17 -53 -31q-80 -14 -127 -20q-141 -20 -211 -21 q-147 0 -225 -16q-127 -27 -535 -158q-25 18 -34 31q-37 43 -37 92q0 8 258 184q143 96 182 134q111 84 223 170q119 109 178 221q-41 8 -92 8q-33 0 -68.5 -3t-74.5 -5q-106 0 -313 -41q-104 -20 -191 -21q-45 0 -86 27q-49 33 -49 76z" />
<glyph unicode="{" />
<glyph unicode="|" />
<glyph unicode="}" />
<glyph unicode="~" />
<glyph unicode="&#xa0;" />
<glyph unicode="&#xad;" horiz-adv-x="886" d="M6 575q0 55 109 84q76 20 149 21q41 16 111.5 28.5t144.5 12.5h256q57 0 100.5 -16.5t43.5 -57.5q0 -14 -20.5 -27.5t-61.5 -13.5q-35 -20 -74 -26q-72 -14 -162 -15h-174l-381 -82q-10 0 -25.5 39t-15.5 53z" />
<glyph unicode="&#xfd;" horiz-adv-x="0" />
<glyph unicode="&#x2000;" horiz-adv-x="821" />
<glyph unicode="&#x2001;" horiz-adv-x="1642" />
<glyph unicode="&#x2002;" horiz-adv-x="821" />
<glyph unicode="&#x2003;" horiz-adv-x="1642" />
<glyph unicode="&#x2004;" horiz-adv-x="547" />
<glyph unicode="&#x2005;" horiz-adv-x="410" />
<glyph unicode="&#x2006;" horiz-adv-x="273" />
<glyph unicode="&#x2007;" horiz-adv-x="273" />
<glyph unicode="&#x2008;" horiz-adv-x="205" />
<glyph unicode="&#x2009;" horiz-adv-x="328" />
<glyph unicode="&#x200a;" horiz-adv-x="91" />
<glyph unicode="&#x2010;" horiz-adv-x="886" d="M6 575q0 55 109 84q76 20 149 21q41 16 111.5 28.5t144.5 12.5h256q57 0 100.5 -16.5t43.5 -57.5q0 -14 -20.5 -27.5t-61.5 -13.5q-35 -20 -74 -26q-72 -14 -162 -15h-174l-381 -82q-10 0 -25.5 39t-15.5 53z" />
<glyph unicode="&#x2011;" horiz-adv-x="886" d="M6 575q0 55 109 84q76 20 149 21q41 16 111.5 28.5t144.5 12.5h256q57 0 100.5 -16.5t43.5 -57.5q0 -14 -20.5 -27.5t-61.5 -13.5q-35 -20 -74 -26q-72 -14 -162 -15h-174l-381 -82q-10 0 -25.5 39t-15.5 53z" />
<glyph unicode="&#x2012;" horiz-adv-x="886" d="M6 575q0 55 109 84q76 20 149 21q41 16 111.5 28.5t144.5 12.5h256q57 0 100.5 -16.5t43.5 -57.5q0 -14 -20.5 -27.5t-61.5 -13.5q-35 -20 -74 -26q-72 -14 -162 -15h-174l-381 -82q-10 0 -25.5 39t-15.5 53z" />
<glyph unicode="&#x2013;" horiz-adv-x="1636" d="M37 670v112q33 49 270 111q172 43 295 61.5t235.5 26.5t186.5 8q117 0 201 -8q254 -25 258 -25q66 -33 98 -53q103 -66 117 -121q-23 -10 -49 -10h-33l-307 62q-203 0 -471 -21q-88 -6 -228 -20q-72 -16 -110 -25q-129 -27 -176 -27q2 -2 6 -2q-18 -14 -293 -69z" />
<glyph unicode="&#x2014;" horiz-adv-x="2020" d="M6 575q0 55 244 84q171 20 334 21q92 16 250 28.5t324 12.5h573q128 0 225.5 -16.5t97.5 -57.5q0 -14 -46 -27.5t-138 -13.5q-78 -20 -166 -26q-161 -14 -363 -15h-389l-854 -82q-23 0 -57.5 39t-34.5 53z" />
<glyph unicode="&#x2018;" horiz-adv-x="2048" d="M8 1108q0 47 19 90q6 12 84 135q109 170 249 240q96 47 211 47q27 0 39.5 -16t12.5 -45q0 -51 -91 -80q-127 -41 -186 -95q-76 -70 -127 -133q-88 -106 -78 -164q12 -74 107 -147q96 -68 194 -133q0 -8 -34 -8q-176 0 -293 100q-106 92 -107 209z" />
<glyph unicode="&#x2019;" horiz-adv-x="2048" d="M-33 827q76 74 152 150q186 182 186 303q0 133 -125 186q-59 25 -59 62q0 55 16.5 68.5t65.5 13.5q72 0 166 -115q102 -124 102 -235q0 -117 -102 -216q-111 -106 -361 -204q-31 -12 -41 -13z" />
<glyph unicode="&#x201c;" horiz-adv-x="2048" d="M27 1090q0 123 155 315q174 217 346 217q31 0 50.5 -14.5t19.5 -48.5q0 -6 -2 -17q-4 -16 -6 -22q-12 0 -113 -64q-133 -84 -213 -174q-115 -129 -114 -254q0 -41 34.5 -107.5t71.5 -136.5q0 -6 -4 -8t-21 4q-102 37 -153 115t-51 195zM354 1028q0 104 192.5 292.5 t309.5 188.5q49 0 77 -25.5t28 -66.5q0 -51 -139.5 -103t-159.5 -81q-78 -82 -109 -119q-55 -66 -55 -158q0 -117 49 -157q72 -37 115 -70q-18 -2 -38 -3t-28 -1q-135 0 -193 84q-49 72 -49 219z" />
<glyph unicode="&#x201d;" horiz-adv-x="2048" d="M-8 811q102 106 178 225q84 131 84 252q0 84 -90 160q-106 90 -115 111q-10 25 35 45q14 6 47 16q100 0 182 -131q63 -100 64 -146v-184q-25 -92 -45 -139q-66 -147 -179.5 -183t-144.5 -36q-16 0 -16 10zM342 758q82 94 141 200q68 119 68 232q0 141 -37 221 q-43 68 -86 137q0 20 22.5 41t45.5 21q41 0 110 -97q78 -109 78 -200v-185q0 -131 -76 -241q-84 -121 -211 -139q-8 -2 -18 -3h-14q-23 0 -23 13z" />
<glyph unicode="&#x202f;" horiz-adv-x="328" />
<glyph unicode="&#x205f;" horiz-adv-x="410" />
<glyph unicode="&#x25fc;" d="M0 0v1024h1024v-1024h-1024z" />
</font>
</defs>
</svg>
